HIERARCHY
ROOT SpineBase
{
  OFFSET 0.000000 0.000000 0.000000
  CHANNELS 6 Xposition Yposition Zposition Zrotation Xrotation Yrotation
  JOINT SpineMid
  {
    OFFSET 0.000000 34.580534 0.000000
    CHANNELS 3 Zrotation Xrotation Yrotation
    JOINT SpineShoulder
    {
      OFFSET 0.085583 25.632035 -0.877200
      CHANNELS 3 Zrotation Xrotation Yrotation
      JOINT Neck
      {
        OFFSET 0.089864 8.458430 -0.656654
        CHANNELS 3 Zrotation Xrotation Yrotation
        JOINT Head
        {
          OFFSET -0.364624 11.061233 6.606146
          CHANNELS 3 Zrotation Xrotation Yrotation
          End Site
          {
            OFFSET 0 0 0
          }
        }
      }
      JOINT ShoulderLeft
      {
        OFFSET -13.065645 -6.899306 -7.354449
        CHANNELS 3 Zrotation Xrotation Yrotation
        JOINT ElbowLeft
        {
          OFFSET -6.999926 -23.801795 7.542082
          CHANNELS 3 Zrotation Xrotation Yrotation
          JOINT WristLeft
          {
            OFFSET -2.241805 -24.749371 8.060336
            CHANNELS 3 Zrotation Xrotation Yrotation
            JOINT HandLeft
            {
              OFFSET -1.465050 -13.041278 3.128992
              CHANNELS 3 Zrotation Xrotation Yrotation
              JOINT HandTipLeft
              {
                OFFSET 0.250275 -3.638612 -0.415738
                CHANNELS 3 Zrotation Xrotation Yrotation
                End Site
                {
                  OFFSET 0 0 0
                }
              }
              JOINT ThumbLeft
              {
                OFFSET 1.363887 0.053164 -3.082285
                CHANNELS 3 Zrotation Xrotation Yrotation
                End Site
                {
                  OFFSET 0 0 0
                }
              }
            }
          }
        }
      }
      JOINT ShoulderRight
      {
        OFFSET 14.081051 -6.799602 -8.646695
        CHANNELS 3 Zrotation Xrotation Yrotation
        JOINT ElbowRight
        {
          OFFSET 5.777829 -25.230577 5.048472
          CHANNELS 3 Zrotation Xrotation Yrotation
          JOINT WristRight
          {
            OFFSET 2.867546 -24.852102 7.715403
            CHANNELS 3 Zrotation Xrotation Yrotation
            JOINT HandRight
            {
              OFFSET -0.527288 -7.215411 2.597650
              CHANNELS 3 Zrotation Xrotation Yrotation
              JOINT HandTipRight
              {
                OFFSET -0.225259 -6.626586 -0.381754
                CHANNELS 3 Zrotation Xrotation Yrotation
                End Site
                {
                  OFFSET 0 0 0
                }
              }
              JOINT ThumbRight
              {
                OFFSET -3.235076 0.151458 -1.216071
                CHANNELS 3 Zrotation Xrotation Yrotation
                End Site
                {
                  OFFSET 0 0 0
                }
              }
            }
          }
        }
      }
    }
  }
  JOINT HipLeft
  {
    OFFSET -5.283832 0.897906 -3.385258
    CHANNELS 3 Zrotation Xrotation Yrotation
    JOINT KneeLeft
    {
      OFFSET -2.713975 -38.744859 -2.419440
      CHANNELS 3 Zrotation Xrotation Yrotation
      JOINT AnkleLeft
      {
        OFFSET -1.750965 -31.651576 -1.317205
        CHANNELS 3 Zrotation Xrotation Yrotation
        JOINT FootLeft
        {
          OFFSET 0.423627 -3.283237 -13.529365
          CHANNELS 3 Zrotation Xrotation Yrotation
          End Site
          {
            OFFSET 0 0 0
          }
        }
      }
    }
  }
  JOINT HipRight
  {
    OFFSET 7.044160 1.085562 -4.287792
    CHANNELS 3 Zrotation Xrotation Yrotation
    JOINT KneeRight
    {
      OFFSET 1.758183 -35.981955 -3.515590
      CHANNELS 3 Zrotation Xrotation Yrotation
      JOINT AnkleRight
      {
        OFFSET 1.742505 -34.047691 -2.671950
        CHANNELS 3 Zrotation Xrotation Yrotation
        JOINT FootRight
        {
          OFFSET 0.222283 -3.256072 -13.563358
          CHANNELS 3 Zrotation Xrotation Yrotation
          End Site
          {
            OFFSET 0 0 0
          }
        }
      }
    }
  }
}
MOTION
Frames: 8
Frame Time: 0.033333
-76.820062 73.391175 336.929897 -0.070051 0.769366 2.798295 -0.289146 0.489632 -2.815659 -0.159540 0.163486 -0.040807 3.890621 -6.599915 -1.918402 0.000000 0.000000 0.000000 0.148489 0.173579 -0.532241 -0.471227 -1.147099 0.251054 2.554301 2.332990 0.397512 -3.772171 8.365859 0.961952 0.000000 0.000000 0.000000 0.000000 0.000000 0.000000 0.543773 -1.407263 0.063788 0.454465 2.378289 0.408558 1.986982 1.789739 0.162336 -5.073132 -2.680198 -0.720933 0.000000 0.000000 0.000000 0.000000 0.000000 0.000000 -0.970468 -0.123405 -2.782869 2.447900 -0.146576 -0.091931 -1.708079 -0.266604 1.303673 0.000000 0.000000 0.000000 0.611651 0.015691 -2.806728 -0.780501 -0.004589 0.067700 -0.054462 -0.616840 1.167974 0.000000 0.000000 0.000000
-76.742816 73.487412 337.083797 -0.042252 0.754639 2.725888 -0.400348 0.649733 -2.746766 -0.198148 0.203938 -0.049433 4.727579 -7.754564 -2.280186 0.000000 0.000000 0.000000 0.374513 0.118945 -0.523824 -0.563179 -1.222331 0.251912 2.622276 2.489210 0.392708 -2.578816 8.744195 0.797771 0.000000 0.000000 0.000000 0.000000 0.000000 0.000000 0.673232 -1.587747 0.078385 0.458808 2.098582 0.378181 3.014046 3.323481 0.428793 -5.959817 -1.737086 -1.157776 0.000000 0.000000 0.000000 0.000000 0.000000 0.000000 -1.085747 0.058236 -2.715010 2.466711 -0.290488 -0.079171 -1.556942 -0.261455 1.002175 0.000000 0.000000 0.000000 0.642281 0.222962 -2.730876 -0.588645 -1.007932 0.003087 -0.222523 0.217341 0.934909 0.000000 0.000000 0.000000
-76.634252 73.605219 337.229419 0.043040 0.635228 2.730336 -0.395715 0.535809 -2.748030 -0.095465 0.003009 -0.033211 4.414633 -6.767920 -2.272371 0.000000 0.000000 0.000000 0.368545 0.836836 -0.568277 -0.761569 -1.401102 0.256477 2.396275 1.857527 0.421822 -2.564630 5.554040 0.568532 0.000000 0.000000 0.000000 0.000000 0.000000 0.000000 0.772702 -0.339244 0.304338 0.083381 1.505742 0.135733 1.713837 -2.069378 0.425346 -6.090669 -1.939975 -0.531448 0.000000 0.000000 0.000000 0.000000 0.000000 0.000000 -1.354472 0.333272 -2.714845 2.694700 -0.322050 -0.083579 -1.368136 -0.583914 0.082232 0.000000 0.000000 0.000000 0.604055 0.514632 -2.733478 -1.008227 -0.459379 0.058359 0.385518 -0.719077 -0.064657 0.000000 0.000000 0.000000
-76.508951 73.740972 337.338296 0.179023 0.455831 2.817953 -0.201222 -0.446476 -2.819450 -0.000000 0.000000 0.000000 3.242567 -4.094227 -1.996740 0.000000 0.000000 0.000000 0.084011 2.089970 -0.593175 -0.948939 -1.398520 0.213240 2.089343 0.747698 0.485840 -2.681452 3.603613 0.394676 0.000000 0.000000 0.000000 0.000000 0.000000 0.000000 -0.188389 1.208114 0.241561 -0.366206 -0.440300 -0.328951 1.630365 5.175834 0.000552 -3.656634 -7.547612 -0.111528 0.000000 0.000000 0.000000 0.000000 0.000000 0.000000 -1.655479 0.646541 -2.794341 2.840615 -0.417046 -0.081378 -1.333606 -0.605572 0.081919 0.000000 0.000000 0.000000 0.504271 0.809563 -2.821499 -1.198595 -0.502410 0.067743 0.554622 -0.787458 -0.080039 0.000000 0.000000 0.000000
-76.378084 73.869287 337.436555 0.343281 0.197126 2.952996 -0.352983 -0.179176 -2.954138 -0.000000 0.000000 0.000000 2.588160 -2.449332 -1.590435 0.000000 0.000000 0.000000 0.252237 2.123953 -0.553061 -1.144751 -1.329721 0.148298 1.999223 0.406174 0.507396 -3.551841 0.538890 0.244935 0.000000 0.000000 0.000000 0.000000 0.000000 0.000000 -0.563491 1.332156 0.199567 -0.339230 -0.447244 -0.378851 0.918413 15.796107 -1.086284 -3.153891 -16.557836 0.509708 0.000000 0.000000 0.000000 0.000000 0.000000 0.000000 -1.991023 1.044311 -2.915412 2.973083 -0.533650 -0.077408 -1.273609 -0.606361 0.079777 0.000000 0.000000 0.000000 -0.041176 0.747456 -2.935457 -0.699276 0.401423 0.078400 0.433520 -1.343380 -0.097765 0.000000 0.000000 0.000000
-76.283407 73.955796 337.480761 0.439729 0.031055 3.040111 -0.440757 -0.007689 -3.040259 -0.000000 0.000000 0.000000 2.331869 -1.249520 -1.416828 0.000000 0.000000 0.000000 0.479680 2.027817 -0.456036 -1.406781 -1.152854 0.027353 1.678490 -0.449215 0.531404 -3.897478 -2.568467 -0.002412 0.000000 0.000000 0.000000 0.000000 0.000000 0.000000 -1.360732 2.053425 0.223799 1.190442 1.486361 0.182606 2.618837 27.633326 -2.626473 -0.520082 -27.160623 1.569879 0.000000 0.000000 0.000000 0.000000 0.000000 0.000000 -2.141684 1.269601 -2.994330 2.948186 -0.640649 -0.069478 -1.181624 -0.547049 0.073770 0.000000 0.000000 0.000000 -0.034412 1.016224 -3.027174 -0.988211 0.259766 0.092406 0.634399 -1.304696 -0.109404 0.000000 0.000000 0.000000
-76.211139 73.988459 337.481574 0.479520 -0.003530 3.080155 -0.478637 0.029290 -3.080018 -0.000000 0.000000 0.000000 2.146601 -0.740655 -1.296863 0.000000 0.000000 0.000000 0.667883 1.858819 -0.348299 -1.607238 -0.923050 -0.090405 1.786180 -0.506316 0.565807 -4.848509 -4.931599 -0.198553 0.000000 0.000000 0.000000 0.000000 0.000000 0.000000 -3.156578 0.914452 -0.400322 4.262057 9.569083 1.984701 9.480132 43.408659 -6.889936 1.785237 -44.463114 4.476513 0.000000 0.000000 0.000000 0.000000 0.000000 0.000000 -2.091950 1.320748 -3.040402 2.643732 -0.768852 -0.050541 -0.963257 -0.435644 0.060507 0.000000 0.000000 0.000000 0.125802 1.294042 -3.076036 -1.395501 -0.241656 0.092810 0.857876 -1.055061 -0.113462 0.000000 0.000000 0.000000
-76.232207 73.913764 337.368479 0.443080 -0.023381 3.153052 -0.441124 0.047716 -3.152778 -0.000000 0.000000 0.000000 1.842254 -0.051161 -1.100892 0.000000 0.000000 0.000000 0.630370 1.672590 -0.303278 -1.600772 -0.693120 -0.142773 2.477562 0.615896 0.605327 -6.313414 -6.353523 -0.322715 0.000000 0.000000 0.000000 0.000000 0.000000 0.000000 -3.736784 2.254374 -0.159924 4.531674 15.420146 2.654413 17.667062 47.774443 -8.891035 0.419620 -44.902575 3.842167 0.000000 0.000000 0.000000 0.000000 0.000000 0.000000 -1.788404 1.220852 -3.126726 1.409516 -1.097558 0.002366 -0.000000 0.000000 0.000000 0.000000 0.000000 0.000000 0.789101 2.012715 -3.185103 -2.370196 -1.904048 0.051972 1.249428 -0.127427 -0.103138 0.000000 0.000000 0.000000
